<?xml version="1.0" encoding="UTF-8"?>
<svg xmlns="http://www.w3.org/2000/svg" xmlns:xlink="http://www.w3.org/1999/xlink" width="0" height="0">
<defs>
<symbol viewBox="0 0 24 24" fill="none" stroke="currentColor" stroke-width="2" stroke-linecap="round" stroke-linejoin="round" class="lucide lucide-lightbulb-icon lucide-lightbulb" id="lightbulb"><path d="M15 14c.2-1 .7-1.7 1.5-2.5 1-.9 1.5-2.2 1.5-3.5A6 6 0 0 0 6 8c0 1 .2 2.2 1.5 3.5.7.7 1.3 1.5 1.5 2.5"></path><path d="M9 18h6"></path><path d="M10 22h4"></path></symbol>
<symbol viewBox="0 0 24 24" fill="none" stroke="currentColor" stroke-width="2" stroke-linecap="round" stroke-linejoin="round" class="lucide lucide-bug-icon lucide-bug" id="bug"><path d="M12 20v-9"></path><path d="M14 7a4 4 0 0 1 4 4v3a6 6 0 0 1-12 0v-3a4 4 0 0 1 4-4z"></path><path d="M14.12 3.88 16 2"></path><path d="M21 21a4 4 0 0 0-3.81-4"></path><path d="M21 5a4 4 0 0 1-3.55 3.97"></path><path d="M22 13h-4"></path><path d="M3 21a4 4 0 0 1 3.81-4"></path><path d="M3 5a4 4 0 0 0 3.55 3.97"></path><path d="M6 13H2"></path><path d="m8 2 1.88 1.88"></path><path d="M9 7.13V6a3 3 0 1 1 6 0v1.13"></path></symbol>
</defs>
</svg>